<svg width="314" height="366" viewBox="0 0 314 366" fill="none" xmlns="http://www.w3.org/2000/svg">
<circle cx="181.483" cy="233.483" r="132.517" fill="#F1D4BA"/>
<path fill-rule="evenodd" clip-rule="evenodd" d="M302.95 288.311C281.164 306.316 253.455 317.095 223.289 317.095C153.151 317.095 96.2934 258.824 96.2934 186.944C96.2934 162.248 103.005 139.159 114.661 119.487C75.7982 142.586 49.7546 184.993 49.7546 233.483C49.7546 306.67 109.085 366 182.272 366C235.905 366 282.096 334.139 302.95 288.311Z" fill="#A9B1A5"/>
<circle cx="156.242" cy="293.431" r="14.6207" fill="#A9B1A5" stroke="#F1D4BA" stroke-width="4"/>
<circle cx="99.8429" cy="179.451" r="7.91595" fill="#A9B1A5" stroke="#F1D4BA" stroke-width="4"/>
<circle cx="188.977" cy="121.08" r="7.91595" fill="#A9B1A5" stroke="#F1D4BA" stroke-width="4"/>
<circle cx="205.541" cy="185.761" r="15.0151" fill="#A9B1A5" stroke="#F1D4BA" stroke-width="4"/>
<circle cx="267.067" cy="231.511" r="30.0022" fill="#A9B1A5" stroke="#F1D4BA" stroke-width="4"/>
<circle cx="190.949" cy="239.004" r="16.9871" fill="#A9B1A5" stroke="#F1D4BA" stroke-width="4"/>
<circle cx="135.733" cy="155.392" r="12.2543" fill="#A9B1A5" stroke="#F1D4BA" stroke-width="4"/>
<circle cx="145.987" cy="203.509" r="6.73276" fill="#A9B1A5" stroke="#F1D4BA" stroke-width="4"/>
<ellipse cx="7.5" cy="7" rx="7.5" ry="7" transform="matrix(-1 0 0 1 144 0)" fill="#FFAB00"/>
<path d="M140 10.5364V154.52C137.477 156.487 135.976 156.5 133 154.52V10.5364C135.579 8.73865 137.067 8.2515 140 10.5364Z" fill="#FFD630"/>
<path d="M133 94V19.7505C111.685 15.1886 99.416 13.9315 71.7325 35.2422C44.092 56.3996 29.9278 54.5197 0 53.3801C18.1134 70.767 29.4776 79.7365 66.5 73.69C105.115 67.9663 116.976 74.6459 133 94Z" fill="#9553F1"/>
<path d="M98.1006 37.0732C98.1006 37.0732 92.8442 44.0639 90.1529 49.5357C87.873 54.1708 86.0143 63.0086 86.0143 63.0086" stroke="white" stroke-width="3"/>
<path d="M98.5195 43.3713L107.332 50.9253" stroke="white" stroke-width="3"/>
<path d="M107.337 50.6736C103.811 53.3594 96.8114 59.0333 97.0128 60.242" stroke="white" stroke-width="3"/>
<path d="M83.8137 57.5476L75.0007 49.9936" stroke="white" stroke-width="3"/>
<path d="M74.9963 50.2454C78.5215 47.5595 85.5215 41.8856 85.3201 40.677" stroke="white" stroke-width="3"/>
</svg>
