<svg width="164" height="111" viewBox="0 0 164 111" fill="none" xmlns="http://www.w3.org/2000/svg">
<path d="M150.471 61C144.071 72.821 140.536 78.7159 136.971 78.7159C133.406 78.7159 129.87 72.821 123.5 61C129.87 72.821 132.909 79.059 131.127 82.334C129.344 85.6089 122.769 85.952 110 85.952C123.237 85.952 129.812 86.2951 131.302 89.9132C132.705 93.2817 129.666 99.4885 123.5 110.904C129.899 99.083 133.435 93.1881 137 93.1881C140.565 93.1881 144.101 99.083 150.5 110.904C143.721 98.3345 140.74 92.0965 143.253 88.9775C145.474 86.2327 152.019 85.952 164 85.952C150.5 85.952 143.925 85.5777 142.61 81.7414C141.412 78.3105 144.451 72.1348 150.471 61Z" fill="white"/>
<path d="M74 36.9736C59.485 38.2922 51.1455 39.5053 46.0257 43.5139C40.0086 48.2081 38.5835 56.8054 37 74C35.3638 56.1725 33.8859 47.6279 27.2882 43.0392C22.1683 39.4526 13.8816 38.2922 0 37.0264C14.4622 35.7078 22.8545 34.4947 27.9215 30.5388C33.9914 25.7919 35.4165 17.2473 37 0C38.4779 15.876 39.7974 24.3678 44.7061 29.273C49.6148 34.1782 58.1655 35.5495 74 36.9736Z" fill="white"/>
</svg>
