<svg width="143" height="184" viewBox="0 0 143 184" fill="none" xmlns="http://www.w3.org/2000/svg">
<path d="M74 146.974C59.485 148.292 51.1455 149.505 46.0257 153.514C40.0086 158.208 38.5835 166.805 37 184C35.3638 166.172 33.8859 157.628 27.2882 153.039C22.1683 149.453 13.8816 148.292 0 147.026C14.4622 145.708 22.8545 144.495 27.9215 140.539C33.9914 135.792 35.4165 127.247 37 110C38.4779 125.876 39.7974 134.368 44.7061 139.273C49.6148 144.178 58.1655 145.55 74 146.974Z" fill="white"/>
<path d="M129.471 0C123.071 11.821 119.536 17.7159 115.971 17.7159C112.406 17.7159 108.87 11.821 102.5 0C108.87 11.821 111.909 18.059 110.127 21.334C108.344 24.6089 101.769 24.952 89 24.952C102.237 24.952 108.812 25.2951 110.302 28.9132C111.705 32.2817 108.666 38.4885 102.5 49.9041C108.899 38.083 112.435 32.1881 116 32.1881C119.565 32.1881 123.101 38.083 129.5 49.9041C122.721 37.3345 119.74 31.0965 122.253 27.9775C124.474 25.2327 131.019 24.952 143 24.952C129.5 24.952 122.925 24.5777 121.61 20.7414C120.412 17.3105 123.451 11.1348 129.471 0Z" fill="white"/>
</svg>
